<svg xmlns="http://www.w3.org/2000/svg" width="252" height="492" version="1.0" viewBox="0 0 189 369"><path d="M43.9 13.9c-2 .4-5.6 1.9-8 3.3-21.6 12.7-18.8 45.1 5.3 62.1C52.9 87.4 60.6 90 86 94c4.1.6 10.2 1.6 13.5 2.1 26.8 4.3 42.3 13.3 50.3 28.9 10.2 20.2 3.3 43.7-16 54.1-5.9 3.2-6.9 3.4-16 3.4-5.3 0-10-.3-10.4-.7-.4-.5 1.8-3.2 4.8-6 10.4-10 14.8-18.8 14.8-29.8 0-14.7-6.5-21.4-20.4-21.3-14.7.1-26.7 11.6-28.3 26.8-.9 8.7 2.2 17.7 9.2 26.9 4.3 5.6 4.8 4.8-8.5 12.2-13.9 7.7-22 13.5-30 21.4-15.1 14.9-25.6 33.8-30.7 55.1-2.2 9.3-2.4 33-.4 40.4 5.6 20.8 13.4 32.1 27.1 39.6 16.2 8.9 33.7 5.1 41.3-9 2.4-4.3 2.9-6.5 2.9-12.1.1-3.8-.5-8.4-1.2-10.2-1.8-4.7-8.9-11.8-11.7-11.8-3.3 0-2.9 1.7 1.5 5.9 8.9 8.7 7.8 24-2.2 30.9-5.3 3.6-11.7 4.8-17.8 3.3-13-3.1-21.6-9.9-27.4-21.5-5.6-11.5-6.7-17.1-6.8-35.1 0-12.1.4-17.8 1.7-23.4 5.3-21.9 16.7-40.8 32.1-53 3.5-2.8 13.9-9.4 23.1-14.6l16.7-9.4 4.1 1.8c2.3 1 5.5 2.3 7 3 4.5 1.8 17.5 1.4 23.3-.8 15.9-5.8 27-20.9 30.5-41.5 2.5-14.6-3-31.5-13.7-41.9-11.2-11-24.3-16.2-51.9-20.7-24.9-4.1-37.6-7.5-46.2-12.5-12.5-7.4-19.5-18.4-19.6-30.9 0-8 1.4-11.8 6.5-16.5 4.2-4 8.8-5.4 15-4.9C65.1 23.5 72.9 39.7 67 53.4c-1.9 4.6-1.9 4.7 0 6.6 2.5 2.5 3.5 2.5 6 0 5.1-5.1 7.3-18 4.6-27.1-1.9-6.8-7.8-13.8-13.9-16.7-5-2.3-14.4-3.4-19.8-2.3zm68.2 119.2c6 1.8 8.2 4.9 8.2 11.1-.1 6-2.2 12-6.9 19.5-3.9 6.1-11.2 13.3-13.5 13.3-5.4 0-12.9-12.8-12.9-22 0-3.2.7-7.4 1.5-9.3 2.2-5.3 7.8-10.4 13.3-12.1 5.9-1.8 5.7-1.8 10.3-.5z"/></svg>