<svg xmlns="http://www.w3.org/2000/svg" width="152" height="368" version="1.0" viewBox="0 0 114 276"><path d="M59.3 18.6C53.1 22.8 44.1 32.1 40.6 38c-5 8.6-6.1 13.3-6 25 .1 11.7 1.6 16.3 8.8 26.9 2 3 3.4 5.6 3.1 5.9-.3.3-1.6 0-3-.6-3.3-1.5-17.6-1.5-22.5-.1-5.4 1.6-13 7.7-15.4 12.4-3.9 7.6-2.2 18.7 4.1 25.6 12.1 13.3 35.8 4.5 29.1-10.8-1.8-4-2.8-4.4-5.6-2.2-4.5 3.5-10.8 1.6-13.8-4.2-1.8-3.6-1.8-6.7.1-11.2 1.2-3 2.3-3.8 5.7-4.8 12.8-3.4 27.7 5.3 35.1 20.4 2.9 5.9 6.6 19.4 8.7 31.2 1.6 9.2.9 35.5-1.1 41-1.1 3.1-1.9 3.9-3.4 3.6-1.1-.2-5.4-.4-9.5-.5-6.4-.1-8 .2-10.8 2.2-4.6 3.4-6.5 7.5-6 13.4.6 5.6 2.6 8.3 7.5 9.9 5.3 1.7 9.9.3 15.3-4.7l4.8-4.4 2.2 4.7c2.9 6.2 3.6 17.6 2 31.3-1.7 13.9-1.8 18.2-.3 18.7 1.7.6 2.8-2.6 5.3-14.8 3.3-16.5 2.1-29.8-3.5-41l-2.5-4.8 2.6-6.7c1.4-3.7 3.1-10.3 3.9-14.8 1.6-9.1 1.9-28.1.5-34.1-1.2-5.1.6-12.5 3.4-14.4 4.4-3 10.4-10.2 13-15.4 3.6-7.5 5.3-13.6 7.1-25.1 1.9-12.7 1.9-15.5-.1-16.3-3.5-1.3-14.9 4.2-20.9 10.2-5.4 5.4-9.3 12.7-11.3 21.4-1.2 5.4-2.7 4.7-5-2.4-2.4-7.7-2.3-8.2 5.6-24 2.7-5.5 5.5-11.8 6.1-14 2.1-7.5 1.3-17.4-2.4-32.1-1.9-7.5-3.5-14.9-3.5-16.3 0-5.6-3.5-6.9-8.7-3.5zM62 36.1c-1.8 1.6-3.7 2.6-4.1 2.3-.9-.5 1.4-8.9 3.9-14.4l1.6-3.5.9 6.4 1 6.5-3.3 2.7zm-9.6-1.4c-.8 2.7-1.9 7.5-2.5 10.8-.6 3.3-1.4 6.4-1.8 6.8-1.2 1.2-3.7-.2-5.1-2.9-1.2-2.2-1.1-3 .9-7.2C46.4 37 51.7 30 53 30c.5 0 .2 2.1-.6 4.7zm14.5 5.5c.9 3.2 1.4 7 1.2 9.5-.1.6-1.1 1.5-2.2 1.8-1.2.4-4.2 2.5-6.5 4.7L55 60.3V45.6l4.6-4.3c2.6-2.4 5-4.3 5.5-4.3.4 0 1.2 1.5 1.8 3.2zM48.2 64.5c.2 3.8.2 7.2.1 7.4-.7 1.1-5.6-2.6-7.5-5.8-2.3-3.6-2.6-8.8-.7-12.3 1-1.8 1.2-1.8 4.3.9 3.1 2.6 3.4 3.3 3.8 9.8zM70 59.8v5.8l-6.6 5.7C59.8 74.4 56.5 77 56 77c-1.7 0-1.7-9.5 0-13 1.9-4 9.2-10 12.1-10 1.7 0 1.9.7 1.9 5.8zM47.8 75.2c1.6.8 2.2 2 2.2 4.2 0 1.7.4 4.7 1 6.6.6 2 .6 3.8.1 4.3-1.2 1.2-8.8-11.7-9.8-16.3l-.6-3.5 2.4 1.8c1.3.9 3.4 2.2 4.7 2.9zM68 73.4c0 2.3-8.5 19.6-9.6 19.6-.7 0-1.4-2.7-1.8-6.2-.7-6-.7-6.3 2.1-8.3 1.5-1.1 3.9-3 5.3-4.2 2.9-2.6 4-2.8 4-.9zm24 12C92 87 83.5 99 82.4 99c-.8 0-1.4-.4-1.4-.9s-.2-1.6-.5-2.3c-.6-1.6 1.2-3.9 6.3-8.1 3.1-2.5 5.2-3.4 5.2-2.3zm3.6 8.8c-.3 1.8-.9 5-1.2 7.1-.5 2.7-1.4 4.2-3 4.9-2.7 1.3-3.2 2.8-.9 2.8 1.9 0 1.9 1-.1 6-1.5 3.7-7.7 9-9 7.7C79.9 121.2 93.1 91 95.3 91c.5 0 .7 1.4.3 3.2zm-15.2 7.1c1.3 3.5-1.1 10.9-3.3 10.5-2.4-.5-3.2-6.7-1.4-10.6 1.8-3.7 3.4-3.7 4.7.1zM75 113.5c1.6 1.9 1.6 5.2 0 9.9-1.8 5.7-3 4.2-3-3.9 0-7.5.7-8.8 3-6zm10 11.1c0 1.2-4.2 6.4-5.1 6.4-1.9 0-.9-4.7 1.4-5.8 2.6-1.2 3.7-1.4 3.7-.6zm-23.3 78c1.6 2.2-.2 5.5-3.9 6.8-3.1 1.1-10.9 0-13.4-1.9-1.7-1.2-1.7-1.5-.4-2.9 4.8-4.8 14.8-5.9 17.7-2z"/></svg>