<svg xmlns="http://www.w3.org/2000/svg" width="276" height="520" version="1.0" viewBox="0 0 207 390"><path d="M92 19.8c0 .5.7 3.3 1.6 6.3 1.1 3.7 1.5 7.6 1.2 12.4-.5 6.8-1.8 11.1-10.3 34-4.3 11.8-5.6 23.4-3.6 33.7 1.4 7 6.4 18.4 10.5 23.7 1.4 1.9 2.4 3.6 2.2 3.9-.2.2-2.1-.1-4.3-.7-14.8-4.1-33.3 2.1-44.9 15.3-9.8 11.1-14.8 23.3-14.7 36.1 0 8.7 1.7 13.8 7 21 9.6 13 29.8 10.4 38.1-4.9 2.7-5 2.2-15.1-1-20.1-3.1-4.9-5.4-6.9-6.8-6-.7.4-.4 1.6.8 3.3 5 7.4 5.5 13.7 1.6 21.8-7.2 15.3-23.2 13.6-31.9-3.5-2.4-4.8-2.4-18.7.1-26.1 2.6-8.1 7.5-15.9 13.6-21.7 13-12.2 28.1-14.3 44.9-6.2 13.9 6.8 23.4 18.6 27 33.9 1.7 7.2 1.5 22.4-.4 33.1-3.4 18.6-9.2 36.2-22.2 66.9-16.5 38.9-20.4 64.3-12.4 79.6 4.7 8.9 11.8 13.8 19.9 13.8 14.1 0 23.2-15.5 17-29.2-2-4.5-4.4-6.2-6.3-4.3-.8.8-.5 2.3 1.2 5.7 2.7 5.3 2.4 11.1-.6 15.3-7.6 10.1-19.5 8.5-25.4-3.6-3.3-6.5-3.9-24.9-1.4-36.8 1.7-7.7 6.5-23.9 8.4-28 .5-1.1 5-11.7 9.9-23.5 13.7-32.6 17-43.6 17.9-59 1-18 6.2-31.4 12.8-33.2 10-2.7 18.5 7.1 14.1 16.3-3 6.3-8.7 7.5-10.7 2.2-1.1-2.8-2.9-2.7-4 .4-.6 1.6-.2 2.9 1.2 4.7 1.7 2.1 2.9 2.6 6.6 2.6 3.9 0 5-.5 7.8-3.5 3.7-3.9 5.1-9.2 4-15.5-.8-4.9-6.7-10.6-12-11.6-7.5-1.4-16.5 4-18 10.6-1.1 4.8-2.1 4.3-3.9-1.8-.9-3.1-2.1-7.1-2.6-8.7-1.1-3.3 0-8.6 2.2-11.2.7-.9 4.1-3.3 7.5-5.5 7.9-5 13.7-11.5 17.7-19.8 2.9-6.1 3.1-7.2 3-18 0-10.8-.1-11.9-3.3-19-1.8-4.1-3.7-8.5-4.2-9.8-1.3-3.5-2.5-2.6-3.7 2.8-1.4 6.1-4.1 10.4-12.5 20.3-9 10.6-12.3 18-14.2 32.5-.4 2.8-1.1 4.9-1.6 4.6-1.7-1-.9-14.9 1.2-23 5.2-19.6 5.9-23.1 7-31.7 3.6-29.3-6.2-58.5-23.3-69.3-3.7-2.4-7.8-3.2-7.8-1.6zm13.4 13.9c2.4 3.5 2.6 4.4 1.6 6.2-1.6 3.2-3.2 2.1-4.6-3-.6-2.4-1.5-5.2-1.9-6.3-1.4-3.3 1.8-1.3 4.9 3.1zm-4.4 15c0 5.3-.8 6.4-2.9 4-.8-1-.8-2.7.1-6.5 1.5-6.1 2.8-4.9 2.8 2.5zm11.9-3.2c1.2 2.5 2.1 5.1 2.1 5.8 0 .7-2.5 3.7-5.5 6.7l-5.5 5.4v-9.1c0-8.2.2-9.4 2.2-11.3 3.2-2.9 4.3-2.5 6.7 2.5zM99.5 56c1.5 1.6 1.7 3 1.1 8.2-.8 8.3-1.8 9.1-6.2 4.7l-3.5-3.6 2.5-5.6c1.4-3.1 2.9-5.7 3.4-5.7s1.7.9 2.7 2zm18.4 3.4c1.7 7 1.4 10.9-1.1 13.1-1.3 1-4.8 4-7.9 6.7-3 2.6-5.9 4.8-6.4 4.8-.4 0-.5-3.7-.1-8.3l.7-8.2 6.2-6.3c3.4-3.4 6.4-6.2 6.8-6.2.4 0 1.2 2 1.8 4.4zM98.4 81.5c-.8 7.2-1.5 10.5-2.2 10.5-.4 0-3.1-2.1-6-4.6-5.8-5.1-5.8-4.9-1.9-15.3l2-5.4 4.3 4.9c4.2 4.7 4.4 5.1 3.8 9.9zm20.6.7v7.1l-8.2 8.3c-4.5 4.6-8.5 8.1-9 7.8-1-.6-1-14.2 0-16.5.7-1.7 15.1-13.8 16.5-13.9.4 0 .7 3.2.7 7.2zm-28.3 8.5 5.1 4.8.4 8.8c.2 4.8.2 8.7 0 8.7-3.5 0-10.8-10.1-11.7-16.2-.6-3.8 0-10.8.9-10.8.1 0 2.5 2.1 5.3 4.7zm25.8 11.6c-3.4 14-3.6 14.5-8.1 18.2l-4.3 3.5-1-3.7c-.6-2.1-1.1-5.6-1.1-7.8 0-3.7.5-4.4 4.8-7.7 2.6-2 5.8-4.8 7.1-6.2 3.3-3.5 4.1-2.5 2.6 3.7zm27 6.8c-2.1 8.3-3.5 12-4.5 11.4-1.8-1.1-5.3-9.8-4.4-11 .5-.6 2.9-3.7 5.4-6.8 4.5-5.7 4.5-5.7 4.8-2.8.2 1.6-.4 5.7-1.3 9.2zm7.3 2.4c.4 4.1-.8 6.1-3.1 5.2-1.1-.4-1.2-1.4-.3-5.1 1.3-5.4 3-5.5 3.4-.1zm-51.9 13.4c.7 3.5 1 6.5.7 6.8-.8.8-6.6-7.7-9.7-14.2-4.5-9.2-3.8-10.4 2.4-4.2 4.7 4.7 5.5 6.1 6.6 11.6zm36.6-5.8 1.9 6.2-2.5 4.6c-1.5 2.5-3.2 4.6-4 4.6-.8 0-2.2-2.4-3.3-5.3-1.6-4.6-1.7-5.6-.5-8 2-4 4.9-8.2 5.7-8.2.4 0 1.6 2.8 2.7 6.1zm14.3 2.6c.4 3.8-2.3 7.1-6.5 7.9l-3.1.6 2.5-5.3c3.7-7.7 6.5-9 7.1-3.2zm-39.5 8.5c-.3 4.3-.9 7.8-1.3 7.8-1.1 0-4-7.6-4-10.3 0-1.4 1.1-2.9 2.7-3.9 1.5-.9 2.8-1.6 2.9-1.5.1.1-.1 3.7-.3 7.9zm14.8 16.7c-2.2 4.5-4.2 7.7-4.6 7.1-.7-1.1 2.2-22.7 3.3-24.4.3-.6 1.6 1.3 2.9 4.1l2.3 5.1-3.9 8.1zm20.2-12.9c-.8 2.9-7.1 9-9.3 9-4.9 0 .3-8.1 6.5-10.2 3.2-1 3.3-.9 2.8 1.2zm-11.9 11.8c.2.4-.4 1.3-1.5 2-1.5 1-1.9 1-1.9-.1 0-2.4 2.3-3.6 3.4-1.9z"/></svg>