<svg xmlns="http://www.w3.org/2000/svg" viewBox="0 0 50 50"><path d="M20 1.9863281a1.0001 1.0001 0 0 0-.867188.4980469l-3.833984 4.7910156a1.0001 1.0001 0 0 0 .181641 1.5859375l1.25.9726563C9.6608379 13.057025 5 20.163342 5 28c0 11.028 8.972 20 20 20s20-8.972 20-20c0-7.836811-4.661471-14.943064-11.730469-18.1660156l1.251953-.9726563a1.0001 1.0001 0 0 0 .175782-1.5917969l-3.832032-4.7910156a1.0001 1.0001 0 0 0-.894531-.4902344A1.0001 1.0001 0 0 0 29.851562 2h-9.703124A1.0001 1.0001 0 0 0 20 1.9863281zM21.476562 4h7.046876l-1.199219 3h-4.648438l-1.199219-3zm-1.767578.9648438L20.523438 7h-2.441407l1.626953-2.0351562zm10.582032 0L31.917969 7h-2.441407l.814454-2.0351562zM18.914062 9h2.830079a1.0001 1.0001 0 0 0 .546875 0h5.419922a1.0001 1.0001 0 0 0 .544921 0h2.830079L25 13.734375 18.914062 9zm2.47461 4.457031 2.998047 2.332031a1.0001 1.0001 0 0 0 1.226562 0l2.998047-2.332031C35.147589 15.075253 40 20.9628 40 28c0 8.284-6.716 15-15 15-8.284 0-15-6.716-15-15 0-7.036539 4.852437-12.924094 11.388672-14.542969z"/></svg>