<svg xmlns="http://www.w3.org/2000/svg" width="128" height="128" version="1.0" viewBox="0 0 96 96"><path d="M16.2 16.4c-8.6 8.8-8.8 10.2-3.8 21 9.4 20.5 26.5 37.3 47.2 46.7 10.2 4.6 13.4 3.8 22.2-5.4 7.2-7.7 7.1-9-2.5-18.8-9.2-9.5-11.8-10.1-18.2-4.3-3.8 3.4-4.1 3.5-6.8 2.1-4.7-2.5-12.2-9.6-14.9-14.3L36.8 39l4.1-4.5c2.3-2.5 4.1-5.4 4.1-6.7C45 24.6 29.2 9 25.9 9c-1.9 0-4.6 2.1-9.7 7.4zM33 21.5l6.4 6.5-4.8 4.9-4.8 4.8 3.1 6.1c3.9 7.7 11.4 15.1 19.6 19.4l6.4 3.3 4.4-4.3c2.3-2.3 4.7-4.2 5.3-4.2.5 0 3.6 2.7 6.9 6l5.9 6-5.4 5.5c-3 3-6.2 5.5-7.2 5.5-2.4 0-14.9-6.3-21.9-11.1-7.5-5-17.1-14.9-22.5-23C19.7 39.7 15 30 15 27.3 15 25.7 24.6 15 26 15c.3 0 3.5 2.9 7 6.5z"/></svg>