<svg xmlns="http://www.w3.org/2000/svg" width="96" height="96" viewBox="0 0 24 24"><path d="M20.3 2.98c-.29.02-.55.1-.78.2a5162.53 5162.53 0 0 0-6.82 2.86L3.3 9.97c-.07.03-.35.11-.65.35-.31.23-.66.75-.66 1.3 0 .46.23.92.5 1.18.27.27.55.39.78.48l3.67 1.46 1.24 3.75c.14.45.28.74.47.99a1.15 1.15 0 0 0 .53.4l.02.01h-.02l.05.02c.03 0 .05 0 .08.02.14.04.28.07.4.07.55 0 .88-.3.88-.3l.02-.01 2.35-2 2.88 2.67c.05.07.46.63 1.41.63.57 0 1.02-.28 1.3-.58.3-.3.47-.6.55-1l2.82-14.15v.02c.08-.38.1-.75 0-1.13a1.62 1.62 0 0 0-1.63-1.18zm-.4 2.2-2.72 13.7-4.15-3.84-2.8 2.37.77-3.04 5.69-5.74c.26-.25.31-.34.31-.43 0-.12-.06-.2-.2-.2-.12 0-.3.12-.38.18-1.15.7-6.02 3.48-8.41 4.85l-3.48-1.4a44934.03 44934.03 0 0 1 15.38-6.46zm-2.75 13.85z"/></svg>