<svg xmlns="http://www.w3.org/2000/svg" width="96" height="96" viewBox="0 0 24 24"><path d="M12.01 2a10 10 0 0 0-8.65 14.98L2 22l5.23-1.24A10 10 0 1 0 12.01 2zm0 2A7.95 7.95 0 0 1 20 12a8 8 0 0 1-11.8 7l-.68-.36-.75.18-1.97.46.49-1.78.21-.8-.41-.72A7.98 7.98 0 0 1 12 4zM8.48 7.38a.92.92 0 0 0-.67.3c-.23.26-.87.86-.87 2.09s.89 2.41 1.02 2.58c.12.17 1.72 2.77 4.26 3.77 2.1.83 2.53.66 3 .62.45-.04 1.47-.6 1.68-1.19.2-.58.2-1.08.14-1.18-.06-.1-.22-.17-.47-.3-.25-.12-1.48-.72-1.7-.8-.24-.09-.4-.13-.57.12-.17.25-.64.81-.79.98-.15.16-.3.19-.54.06-.25-.12-1.06-.39-2-1.24a7.52 7.52 0 0 1-1.4-1.73c-.14-.24-.01-.38.11-.5s.25-.3.38-.44c.12-.15.16-.25.25-.42.08-.16.04-.31-.02-.44-.07-.12-.55-1.35-.77-1.85-.2-.41-.39-.42-.57-.43h-.47z"/></svg>